mastitorrents.com
 
http://mastitorrents.com/forums/index.php

Source...........................: Blu Ray DDR
Ripper...........................: DrC

General
Format : Matroska
File size : 113 MiB
Duration : 3mn 5s
Overall bit rate : 5 092 Kbps
Encoded date : UTC 2010-09-02 14:12:10
Writing application : mkvmerge v2.9.8 ('C'est le bon') built on Aug 13 2009 12:49:06
Writing library : libebml v0.7.7 + libmatroska v0.8.1

Video
ID : 1
Format : AVC
Format/Info : Advanced Video Codec
Format profile : High@L4.1
Format settings, CABAC : Yes
Format settings, ReFrames : 3 frames
Muxing mode : Container profile=Unknown@4.1
Codec ID : V_MPEG4/ISO/AVC
Duration : 3mn 5s
Bit rate : 4 351 Kbps
Width : 1 280 pixels
Height : 544 pixels
Display aspect ratio : 2.35:1
Frame rate : 24.000 fps
Color space : YUV
Chroma subsampling : 4:2:0
Bit depth : 8 bits
Scan type : Progressive
Bits/(Pixel*Frame) : 0.260
Stream size : 96.3 MiB (85%)
Language : English
Color primaries : BT.709-5, BT.1361, IEC 61966-2-4, SMPTE RP177
Transfer characteristics : BT.709-5, BT.1361
Matrix coefficients : BT.709-5, BT.1361, IEC 61966-2-4 709, SMPTE RP177

Audio
ID : 2
Format : AC-3
Format/Info : Audio Coding 3
Mode extension : CM (complete main)
Codec ID : A_AC3
Duration : 3mn 5s
Bit rate mode : Constant
Bit rate : 640 Kbps
Channel(s) : 6 channels
Channel positions : Front: L C R, Side: L R, LFE
Sampling rate : 48.0 KHz
Bit depth : 16 bits
Video delay : 28ms
Stream size : 14.2 MiB (13%)

Ripper Notes: Enjoy da DrC Rip...